<?xml version="1.0" encoding="UTF-8"?>
<svg width="240px" height="199px" viewBox="0 0 240 199" version="1.1" xmlns="http://www.w3.org/2000/svg" xmlns:xlink="http://www.w3.org/1999/xlink">
    <title>icon / slice</title>
    <g id="Desktop" stroke="none" stroke-width="1" fill="none" fill-rule="evenodd">
        <g id="Artboard" transform="translate(-840.000000, -1094.000000)">
            <g id="icon-/-cactus" transform="translate(826.000000, 1085.000000)">
                <g id="cactus" transform="translate(13.000000, 8.000000)">
                    <g transform="translate(0.433037, 0.780000)">
                        <path d="M30.3051224,198.865 L210.279854,198.865 C230.072572,175.329857 239.968932,149.014857 239.968932,119.92 C239.968932,53.8126429 186.375448,0.22 120.266963,0.22 C54.1584787,0.22 0.56696325,52.6770313 0.56696325,119.92 C0.56696325,149.694219 10.479683,176.009219 30.3051224,198.865 Z" id="cactus-/-bg" fill="#000000"></path>
                        <path d="M239.951989,117.88545 C239.963269,118.562281 239.968932,119.240479 239.968932,119.92 C239.968932,149.014857 230.072572,175.329857 210.279854,198.865 L210.644793,198.42745 L209.019793,198.86445 L30.3051224,198.865 C24.5866141,192.272411 19.6928375,185.392017 15.6237927,178.223819 Z" id="Combined-Shape" fill="#FFFFFF" opacity="0.12"></path>
                        <path d="M107.299635,129.166667 L107.299635,198.865 L136.796963,198.865 L136.796963,152.072393 L158.100628,152.072393 C164.435928,152.072393 169.571963,146.944629 169.571963,140.619188 L169.571963,83.3555556 C169.571963,77.0304569 164.436271,71.9026922 158.100628,71.9026922 C151.764984,71.9026922 146.629635,77.0304569 146.629635,83.3555556 L146.629635,129.166667 L136.796963,129.166667 L136.796963,45.7249145 C136.796963,37.5937203 130.192951,31 122.048299,31 C113.90399,31 107.299635,37.5937203 107.299635,45.7249145 L107.299635,106.26094 L94.1896346,106.26094 L94.1896346,63.7222222 C94.1896346,57.3971236 89.0539421,52.2693589 82.7182989,52.2693589 C76.3826558,52.2693589 71.2469632,57.3971236 71.2469632,63.7222222 L71.2469632,117.713803 C71.2469632,124.039244 76.3826558,129.166667 82.7182989,129.166667 L107.299635,129.166667 Z" id="Fill-1" fill="#FFFFFF"></path>
                    </g>
                </g>
            </g>
        </g>
    </g>
</svg>