<?xml version="1.0" encoding="UTF-8"?>
<svg width="156px" height="130px" viewBox="0 0 156 130" version="1.1" xmlns="http://www.w3.org/2000/svg" xmlns:xlink="http://www.w3.org/1999/xlink">
    <title>icon / cactus copy</title>
    <g id="Desktop" stroke="none" stroke-width="1" fill="none" fill-rule="evenodd">
        <g id="Artboard" transform="translate(-547.000000, -2221.000000)">
            <g id="icon-/-cactus-copy" transform="translate(546.000000, 2221.050000)">
                <g id="cactus" transform="translate(0.281474, 0.507000)">
                    <path d="M19.6983296,129.26225 L136.681905,129.26225 C149.547172,113.964407 155.979806,96.8596569 155.979806,77.948 C155.979806,34.9782179 121.144041,0.143 78.1735261,0.143 C35.2030112,0.143 0.368526112,34.2400703 0.368526112,77.948 C0.368526112,97.3012422 6.81179393,114.405992 19.6983296,129.26225 Z" id="cactus-/-bg" fill="#000000"></path>
                    <path d="M155.968805,76.6262899 C155.976129,77.0659821 155.979806,77.5065618 155.979806,77.948 C155.979806,96.8596569 149.547172,113.964407 136.681905,129.26225 L136.918522,128.977266 L135.863522,129.261266 L19.6983296,129.26225 C15.9813468,124.977122 12.8004259,120.504926 10.1555669,115.845661 Z" id="Combined-Shape" fill="#FFFFFF" opacity="0.12"></path>
                </g>
                <polygon id="Star" fill="#F7F7F7" points="78.325 92.9125 56.3565262 104.46201 60.5521314 79.9997551 42.7792627 62.6754898 67.3407631 59.1064949 78.325 36.85 89.3092369 59.1064949 113.870737 62.6754898 96.0978686 79.9997551 100.293474 104.46201"></polygon>
            </g>
        </g>
    </g>
</svg>