<?xml version="1.0" encoding="UTF-8"?>
<svg width="256px" height="200px" viewBox="0 0 256 200" version="1.1" xmlns="http://www.w3.org/2000/svg" xmlns:xlink="http://www.w3.org/1999/xlink">
    <title>Artboard</title>
    <g id="Desktop" stroke="none" stroke-width="1" fill="none" fill-rule="evenodd">
        <g id="Artboard" transform="translate(-829.000000, -1094.000000)">
            <g id="Group" transform="translate(438.000000, 1094.000000)">
                <g id="cactus" transform="translate(402.000000, 0.000000)">
                    <path d="M119.7,0 C185.808485,0 239.4,53.5915154 239.4,119.7 C239.4,149.947255 228.181015,177.574176 209.677269,198.646538 L29.7227314,198.646538 C11.2189851,177.574176 0,149.947255 0,119.7 C0,53.5915154 53.5915154,0 119.7,0 Z" id="cactus-/-bg" fill="#000000"></path>
                    <g transform="translate(70.433037, 30.780000)" fill="#FFFFFF" id="Fill-1">
                        <path d="M36.2996346,98.1666667 L36.2996346,168.7 L65.7969632,168.7 L65.7969632,121.072393 L87.1006276,121.072393 C93.435928,121.072393 98.5719632,115.944629 98.5719632,109.619188 L98.5719632,52.3555556 C98.5719632,46.0304569 93.4362707,40.9026922 87.1006276,40.9026922 C80.7649844,40.9026922 75.6296346,46.0304569 75.6296346,52.3555556 L75.6296346,98.1666667 L65.7969632,98.1666667 L65.7969632,14.7249145 C65.7969632,6.59372026 59.1929507,0 51.0482989,0 C42.9039899,0 36.2996346,6.59372026 36.2996346,14.7249145 L36.2996346,75.26094 L23.1896346,75.26094 L23.1896346,32.7222222 C23.1896346,26.3971236 18.0539421,21.2693589 11.7182989,21.2693589 C5.3826558,21.2693589 0.24696325,26.3971236 0.24696325,32.7222222 L0.24696325,86.7138033 C0.24696325,93.0392442 5.3826558,98.1666667 11.7182989,98.1666667 L36.2996346,98.1666667 Z"></path>
                    </g>
                </g>
            </g>
            <path d="M1087.4231,1209.50342 L1105.50771,1277.29883 L1047.1288,1293.00042 L823.091802,1293.00042 L820.005802,1281.43157 L1087.4231,1209.50342 Z" id="Combined-Shape" fill="#FFFFFF" opacity="0.115350632"></path>
        </g>
    </g>
</svg>