<?xml version="1.0" encoding="UTF-8"?>
<svg width="248px" height="229px" viewBox="0 0 248 229" version="1.1" xmlns="http://www.w3.org/2000/svg" xmlns:xlink="http://www.w3.org/1999/xlink">
    <title>cactus</title>
    <defs>
        <text id="text-1" font-family="DSLCLU+MarkPro-Heavy" font-size="65.664" font-weight="600" line-spacing="72.2304" fill="#000000">
            <tspan x="438" y="1377">WE ARE YOUR METRO PHOENIX</tspan>
            <tspan x="596.069664" y="1449.2304">MORTGAGE EXPERTS.</tspan>
        </text>
        <filter x="-0.3%" y="-2.1%" width="101.1%" height="108.3%" filterUnits="objectBoundingBox" id="filter-2">
            <feOffset dx="4" dy="4" in="SourceAlpha" result="shadowOffsetOuter1"></feOffset>
            <feGaussianBlur stdDeviation="1" in="shadowOffsetOuter1" result="shadowBlurOuter1"></feGaussianBlur>
            <feColorMatrix values="0 0 0 0 0   0 0 0 0 0   0 0 0 0 0  0 0 0 0 0" type="matrix" in="shadowBlurOuter1"></feColorMatrix>
        </filter>
    </defs>
    <g id="Desktop" stroke="none" stroke-width="1" fill="none" fill-rule="evenodd">
        <g id="Artboard" transform="translate(-833.000000, -1080.000000)">
            <g id="icon-/-cactus" transform="translate(833.000000, 1080.000000)">
                <g id="cactus" transform="translate(0.433037, 0.780000)">
                    <path d="M36.3051224,211.865 L216.279854,211.865 C236.072572,188.329857 245.968932,162.014857 245.968932,132.92 C245.968932,66.8126429 192.375448,13.22 126.266963,13.22 C60.1584787,13.22 6.56696325,65.6770313 6.56696325,132.92 C6.56696325,162.694219 16.479683,189.009219 36.3051224,211.865 Z" id="cactus-/-bg" fill="#000000"></path>
                    <path d="M245.951989,130.88545 C245.963269,131.562281 245.968932,132.240479 245.968932,132.92 C245.968932,162.014857 236.072572,188.329857 216.279854,211.865 L216.644793,211.42745 L215.019793,211.86445 L36.3051224,211.865 C30.5866141,205.272411 25.6928375,198.392017 21.6237927,191.223819 Z" id="Combined-Shape" fill="#FFFFFF" opacity="0.12"></path>
                    <path d="M113.299635,142.166667 L113.299635,212.865 L142.796963,212.865 L142.796963,165.072393 L164.100628,165.072393 C170.435928,165.072393 175.571963,159.944629 175.571963,153.619188 L175.571963,96.3555556 C175.571963,90.0304569 170.436271,84.9026922 164.100628,84.9026922 C157.764984,84.9026922 152.629635,90.0304569 152.629635,96.3555556 L152.629635,142.166667 L142.796963,142.166667 L142.796963,58.7249145 C142.796963,50.5937203 136.192951,44 128.048299,44 C119.90399,44 113.299635,50.5937203 113.299635,58.7249145 L113.299635,119.26094 L100.189635,119.26094 L100.189635,76.7222222 C100.189635,70.3971236 95.0539421,65.2693589 88.7182989,65.2693589 C82.3826558,65.2693589 77.2469632,70.3971236 77.2469632,76.7222222 L77.2469632,130.713803 C77.2469632,137.039244 82.3826558,142.166667 88.7182989,142.166667 L113.299635,142.166667 Z" id="Fill-1" fill="#FFFFFF"></path>
                </g>
            </g>
            <g id="WE-ARE-YOUR-METRO-PH" fill="#000000" fill-opacity="1">
                <use filter="url(#filter-2)" xlink:href="#text-1"></use>
                <use xlink:href="#text-1"></use>
            </g>
        </g>
    </g>
</svg>