<?xml version="1.0" encoding="UTF-8"?>
<svg width="240px" height="199px" viewBox="0 0 240 199" version="1.1" xmlns="http://www.w3.org/2000/svg" xmlns:xlink="http://www.w3.org/1999/xlink">
    <title>icon / slice</title>
    <g id="Desktop" stroke="none" stroke-width="1" fill="none" fill-rule="evenodd">
        <g id="Artboard" transform="translate(-841.000000, -5693.000000)">
            <g id="icon-/-cactus-copy-2" transform="translate(827.000000, 5684.000000)">
                <g id="cactus" transform="translate(13.000000, 8.000000)">
                    <g transform="translate(0.433037, 0.780000)">
                        <path d="M30.3051224,198.865 L210.279854,198.865 C230.072572,175.329857 239.968932,149.014857 239.968932,119.92 C239.968932,53.8126429 186.375448,0.22 120.266963,0.22 C54.1584787,0.22 0.56696325,52.6770313 0.56696325,119.92 C0.56696325,149.694219 10.479683,176.009219 30.3051224,198.865 Z" id="cactus-/-bg" fill="#FFFFFF"></path>
                        <path d="M239.951989,117.88545 C239.963269,118.562281 239.968932,119.240479 239.968932,119.92 C239.968932,149.014857 230.072572,175.329857 210.279854,198.865 L210.644793,198.42745 L209.019793,198.86445 L30.3051224,198.865 C24.5866141,192.272411 19.6928375,185.392017 15.6237927,178.223819 Z" id="Combined-Shape" fill="#F8F8F8"></path>
                    </g>
                </g>
                <g id="Group-21" transform="translate(75.000000, 48.000000)" fill="#EE9791">
                    <path d="M96.957,148.3596 C84.227931,148.3596 73.872,138.003669 73.872,125.2746 C73.872,112.545531 84.227931,102.1896 96.957,102.1896 C109.686069,102.1896 120.042,112.545531 120.042,125.2746 C120.042,138.003669 109.686069,148.3596 96.957,148.3596 L96.957,148.3596 Z M9.234,129.8916 L9.234,9.234 L92.34,9.234 L92.34,93.2867928 C76.6985274,95.5340406 64.638,109.021221 64.638,125.2746 C64.638,126.842225 64.7525016,128.383072 64.9691928,129.8916 L9.234,129.8916 Z M101.574,93.2867928 L101.574,4.617 C101.574,2.0671848 99.5068152,0 96.957,0 L4.617,0 C2.0671848,0 0,2.0671848 0,4.617 L0,134.5086 C0,137.058415 2.0671848,139.1256 4.617,139.1256 L67.760631,139.1256 C72.9569106,150.034955 84.0903444,157.5936 96.957,157.5936 C114.777697,157.5936 129.276,143.095297 129.276,125.2746 C129.276,109.021529 117.215473,95.5340406 101.574,93.2867928 L101.574,93.2867928 Z" id="Fill-1"></path>
                    <path d="M102.92635,115.08445 L92.3398769,125.670923 L88.6792115,122.00995 C86.8761191,120.207165 83.9526347,120.207165 82.1495423,122.00995 C80.3467577,123.813042 80.3467577,126.736219 82.1495423,128.539619 L89.0750423,135.465119 C89.9768963,136.366665 91.1585405,136.817285 92.3395691,136.817285 C93.5209055,136.817285 94.7028575,136.366973 95.6040959,135.465119 L109.455096,121.614119 C111.258188,119.810719 111.258188,116.887542 109.455096,115.08445 C107.652619,113.281358 104.729135,113.281358 102.92635,115.08445" id="Fill-3"></path>
                    <path d="M23.085,28.3176 C25.6348152,28.3176 27.702,30.3847848 27.702,32.9346 C27.702,35.4844152 25.6348152,37.5516 23.085,37.5516 C20.5351848,37.5516 18.468,35.4844152 18.468,32.9346 C18.468,30.3847848 20.5351848,28.3176 23.085,28.3176" id="Fill-5"></path>
                    <path d="M23.085,46.7856 C25.6348152,46.7856 27.702,48.8527848 27.702,51.4026 C27.702,53.9524152 25.6348152,56.0196 23.085,56.0196 C20.5351848,56.0196 18.468,53.9524152 18.468,51.4026 C18.468,48.8527848 20.5351848,46.7856 23.085,46.7856" id="Fill-7"></path>
                    <path d="M23.085,65.2536 C25.6348152,65.2536 27.702,67.3207848 27.702,69.8706 C27.702,72.4204152 25.6348152,74.4876 23.085,74.4876 C20.5351848,74.4876 18.468,72.4204152 18.468,69.8706 C18.468,67.3207848 20.5351848,65.2536 23.085,65.2536" id="Fill-9"></path>
                    <path d="M23.085,83.7216 C25.6348152,83.7216 27.702,85.7887848 27.702,88.3386 C27.702,90.8884152 25.6348152,92.9556 23.085,92.9556 C20.5351848,92.9556 18.468,90.8884152 18.468,88.3386 C18.468,85.7887848 20.5351848,83.7216 23.085,83.7216" id="Fill-11"></path>
                    <path d="M41.553,37.5516 L78.489,37.5516 C81.0388152,37.5516 83.106,35.4844152 83.106,32.9346 C83.106,30.3847848 81.0388152,28.3176 78.489,28.3176 L41.553,28.3176 C39.0031848,28.3176 36.936,30.3847848 36.936,32.9346 C36.936,35.4844152 39.0031848,37.5516 41.553,37.5516" id="Fill-13"></path>
                    <path d="M41.553,56.0196 L78.489,56.0196 C81.0388152,56.0196 83.106,53.9524152 83.106,51.4026 C83.106,48.8527848 81.0388152,46.7856 78.489,46.7856 L41.553,46.7856 C39.0031848,46.7856 36.936,48.8527848 36.936,51.4026 C36.936,53.9524152 39.0031848,56.0196 41.553,56.0196" id="Fill-15"></path>
                    <path d="M41.553,74.4876 L78.489,74.4876 C81.0388152,74.4876 83.106,72.4204152 83.106,69.8706 C83.106,67.3207848 81.0388152,65.2536 78.489,65.2536 L41.553,65.2536 C39.0031848,65.2536 36.936,67.3207848 36.936,69.8706 C36.936,72.4204152 39.0031848,74.4876 41.553,74.4876" id="Fill-17"></path>
                    <path d="M60.021,83.7216 L41.553,83.7216 C39.0031848,83.7216 36.936,85.7887848 36.936,88.3386 C36.936,90.8884152 39.0031848,92.9556 41.553,92.9556 L60.021,92.9556 C62.5708152,92.9556 64.638,90.8884152 64.638,88.3386 C64.638,85.7887848 62.5708152,83.7216 60.021,83.7216" id="Fill-19"></path>
                </g>
            </g>
        </g>
    </g>
</svg>