<?xml version="1.0" encoding="utf-8"?>
<!-- Generator: Adobe Illustrator 24.0.0, SVG Export Plug-In . SVG Version: 6.00 Build 0)  -->
<svg version="1.1" id="Capa_1" xmlns="http://www.w3.org/2000/svg" xmlns:xlink="http://www.w3.org/1999/xlink" x="0px" y="0px"
	 viewBox="0 0 512 512" style="enable-background:new 0 0 512 512;" xml:space="preserve">
<style type="text/css">
	.st0{fill:#FFFFFF;}
</style>
<path class="st0" d="M437.1,74.9c-99.8-99.8-262.4-99.8-362.2,0c-99.8,99.9-99.8,262.4,0,362.2C124.8,487,190.4,512,256,512
	c65.6,0,131.2-25,181.1-74.9C537,337.2,537,174.8,437.1,74.9z M341.4,310.8c7.8,7.8,7.8,20.3,0,28.1c-3.9,3.9-8.9,5.8-14,5.8
	c-5.1,0-10.2-1.9-14-5.8l-56.1-56.1l-56.1,56.1c-3.9,3.9-8.9,5.8-14,5.8c-5.1,0-10.2-1.9-14-5.8c-7.8-7.8-7.8-20.3,0-28.1l56.1-56.1
	l-56.1-56.1c-7.8-7.8-7.8-20.3,0-28.1c7.8-7.8,20.3-7.8,28.1,0l56.1,56.1l56.1-56.1c7.8-7.8,20.3-7.8,28.1,0
	c7.8,7.8,7.8,20.3,0,28.1l-56.1,56.1L341.4,310.8z"/>
</svg>
