<?xml version="1.0" encoding="UTF-8"?>
<svg width="535px" height="147px" viewBox="0 0 535 147" version="1.1" xmlns="http://www.w3.org/2000/svg" xmlns:xlink="http://www.w3.org/1999/xlink">
    <title>2018_Logo_Horizontal_Black_Vector</title>
    <g id="Desktop" stroke="none" stroke-width="1" fill="none" fill-rule="evenodd">
        <g id="Artboard" transform="translate(-1367.000000, -7115.000000)" fill="#1A1919">
            <g id="2018_Logo_Horizontal_Black_Vector" transform="translate(1367.000000, 7115.000000)">
                <polygon id="Fill-1" points="158.191 146.053 160.704 146.053 160.704 133.072 158.191 133.072"></polygon>
                <path d="M164.818,133.085 C164.894,133.095 164.961,133.115 165.022,133.147 C165.083,133.181 165.142,133.224 165.197,133.277 C165.253,133.331 165.313,133.403 165.38,133.492 L171.438,141.768 C171.415,141.541 171.398,141.32 171.387,141.105 C171.376,140.891 171.37,140.688 171.37,140.497 L171.37,133.072 L173.575,133.072 L173.575,146.053 L172.286,146.053 C172.092,146.053 171.928,146.019 171.795,145.95 C171.662,145.882 171.531,145.764 171.403,145.597 L165.389,137.375 C165.405,137.584 165.418,137.788 165.426,137.987 C165.435,138.187 165.438,138.374 165.438,138.547 L165.438,146.053 L163.233,146.053 L163.233,133.072 L164.548,133.072 C164.653,133.072 164.744,133.076 164.818,133.085" id="Fill-2"></path>
                <path d="M184.366,139.558 C184.366,138.878 184.282,138.267 184.116,137.724 C183.95,137.182 183.711,136.722 183.4,136.346 C183.09,135.971 182.712,135.682 182.265,135.479 C181.818,135.275 181.313,135.174 180.747,135.174 L178.617,135.174 L178.617,143.95 L180.747,143.95 C181.313,143.95 181.818,143.851 182.265,143.65 C182.712,143.451 183.09,143.162 183.4,142.783 C183.711,142.404 183.95,141.943 184.116,141.4 C184.282,140.858 184.366,140.244 184.366,139.558 Z M186.929,139.558 C186.929,140.506 186.78,141.378 186.483,142.175 C186.187,142.971 185.768,143.655 185.227,144.228 C184.687,144.8 184.036,145.248 183.276,145.569 C182.516,145.892 181.673,146.053 180.747,146.053 L176.104,146.053 L176.104,133.072 L180.747,133.072 C181.673,133.072 182.516,133.232 183.276,133.555 C184.036,133.877 184.687,134.326 185.227,134.901 C185.768,135.477 186.187,136.161 186.483,136.954 C186.78,137.748 186.929,138.615 186.929,139.558 L186.929,139.558 Z" id="Fill-3"></path>
                <polyline id="Fill-4" points="196.454 133.072 196.454 135.174 191.279 135.174 191.279 138.511 195.307 138.511 195.307 140.542 191.279 140.542 191.279 143.95 196.454 143.95 196.454 146.053 188.767 146.053 188.767 133.072 196.454 133.072"></polyline>
                <path d="M200.814,139.531 L202.395,139.531 C203.177,139.531 203.75,139.328 204.113,138.923 C204.477,138.518 204.658,137.963 204.658,137.259 C204.658,136.937 204.612,136.643 204.521,136.378 C204.429,136.112 204.29,135.886 204.104,135.697 C203.919,135.51 203.685,135.365 203.401,135.264 C203.119,135.162 202.783,135.111 202.395,135.111 L200.814,135.111 L200.814,139.531 Z M200.814,141.589 L200.814,146.053 L198.318,146.053 L198.318,133.072 L202.395,133.072 C203.222,133.072 203.936,133.177 204.537,133.385 C205.139,133.594 205.634,133.885 206.022,134.257 C206.41,134.63 206.697,135.073 206.884,135.586 C207.069,136.099 207.162,136.656 207.162,137.259 C207.162,137.896 207.065,138.481 206.871,139.012 C206.677,139.543 206.383,139.999 205.989,140.381 C205.595,140.763 205.099,141.06 204.5,141.271 C203.9,141.482 203.199,141.589 202.395,141.589 L200.814,141.589 L200.814,141.589 Z" id="Fill-5"></path>
                <polyline id="Fill-6" points="216.438 133.072 216.438 135.174 211.264 135.174 211.264 138.511 215.291 138.511 215.291 140.542 211.264 140.542 211.264 143.95 216.438 143.95 216.438 146.053 208.751 146.053 208.751 133.072 216.438 133.072"></polyline>
                <path d="M219.888,133.085 C219.962,133.095 220.03,133.115 220.091,133.147 C220.152,133.181 220.211,133.224 220.266,133.277 C220.321,133.331 220.383,133.403 220.449,133.492 L226.506,141.768 C226.483,141.541 226.467,141.32 226.456,141.105 C226.444,140.891 226.439,140.688 226.439,140.497 L226.439,133.072 L228.645,133.072 L228.645,146.053 L227.354,146.053 C227.16,146.053 226.997,146.019 226.863,145.95 C226.73,145.882 226.601,145.764 226.473,145.597 L220.457,137.375 C220.474,137.584 220.486,137.788 220.495,137.987 C220.503,138.187 220.507,138.374 220.507,138.547 L220.507,146.053 L218.303,146.053 L218.303,133.072 L219.617,133.072 C219.723,133.072 219.813,133.076 219.888,133.085" id="Fill-7"></path>
                <path d="M239.435,139.558 C239.435,138.878 239.352,138.267 239.186,137.724 C239.019,137.182 238.78,136.722 238.47,136.346 C238.159,135.971 237.78,135.682 237.334,135.479 C236.888,135.275 236.381,135.174 235.815,135.174 L233.686,135.174 L233.686,143.95 L235.815,143.95 C236.381,143.95 236.888,143.851 237.334,143.65 C237.78,143.451 238.159,143.162 238.47,142.783 C238.78,142.404 239.019,141.943 239.186,141.4 C239.352,140.858 239.435,140.244 239.435,139.558 Z M241.997,139.558 C241.997,140.506 241.849,141.378 241.552,142.175 C241.256,142.971 240.837,143.655 240.296,144.228 C239.755,144.8 239.104,145.248 238.345,145.569 C237.585,145.892 236.742,146.053 235.815,146.053 L231.173,146.053 L231.173,133.072 L235.815,133.072 C236.742,133.072 237.585,133.232 238.345,133.555 C239.104,133.877 239.755,134.326 240.296,134.901 C240.837,135.477 241.256,136.161 241.552,136.954 C241.849,137.748 241.997,138.615 241.997,139.558 L241.997,139.558 Z" id="Fill-8"></path>
                <polyline id="Fill-9" points="251.523 133.072 251.523 135.174 246.349 135.174 246.349 138.511 250.375 138.511 250.375 140.542 246.349 140.542 246.349 143.95 251.523 143.95 251.523 146.053 243.836 146.053 243.836 133.072 251.523 133.072"></polyline>
                <path d="M254.972,133.085 C255.047,133.095 255.114,133.115 255.176,133.147 C255.236,133.181 255.295,133.224 255.351,133.277 C255.406,133.331 255.467,133.403 255.533,133.492 L261.591,141.768 C261.568,141.541 261.552,141.32 261.54,141.105 C261.529,140.891 261.523,140.688 261.523,140.497 L261.523,133.072 L263.729,133.072 L263.729,146.053 L262.439,146.053 C262.245,146.053 262.081,146.019 261.948,145.95 C261.815,145.882 261.685,145.764 261.557,145.597 L255.542,137.375 C255.559,137.584 255.571,137.788 255.579,137.987 C255.588,138.187 255.592,138.374 255.592,138.547 L255.592,146.053 L253.387,146.053 L253.387,133.072 L254.701,133.072 C254.807,133.072 254.897,133.076 254.972,133.085" id="Fill-10"></path>
                <polyline id="Fill-11" points="274.803 133.072 274.803 135.237 271.275 135.237 271.275 146.053 268.771 146.053 268.771 135.237 265.243 135.237 265.243 133.072 274.803 133.072"></polyline>
                <path d="M286.146,141.061 C286.238,141.281 286.325,141.508 286.408,141.74 C286.492,141.502 286.58,141.27 286.675,141.043 C286.77,140.816 286.869,140.599 286.975,140.39 L290.327,133.492 C290.377,133.391 290.43,133.312 290.485,133.255 C290.541,133.198 290.601,133.157 290.664,133.13 C290.728,133.104 290.8,133.087 290.881,133.081 C290.961,133.075 291.057,133.072 291.168,133.072 L293.064,133.072 L293.064,146.053 L290.859,146.053 L290.859,138.082 C290.859,137.921 290.864,137.745 290.872,137.554 C290.881,137.363 290.893,137.166 290.91,136.964 L287.465,144.004 C287.276,144.392 286.985,144.586 286.592,144.586 L286.242,144.586 C286.048,144.586 285.876,144.536 285.727,144.437 C285.576,144.34 285.457,144.195 285.368,144.004 L281.899,136.945 C281.916,137.148 281.93,137.347 281.94,137.54 C281.952,137.734 281.957,137.915 281.957,138.082 L281.957,146.053 L279.753,146.053 L279.753,133.072 L281.649,133.072 C281.755,133.072 281.85,133.075 281.933,133.081 C282.016,133.087 282.089,133.104 282.153,133.13 C282.217,133.157 282.274,133.198 282.328,133.255 C282.38,133.312 282.432,133.391 282.481,133.492 L285.859,140.417 C285.959,140.626 286.055,140.84 286.146,141.061" id="Fill-12"></path>
                <path d="M304.695,139.558 C304.695,138.878 304.612,138.269 304.446,137.729 C304.279,137.188 304.039,136.729 303.727,136.351 C303.413,135.972 303.033,135.683 302.586,135.482 C302.14,135.283 301.634,135.184 301.068,135.184 C300.502,135.184 299.995,135.283 299.546,135.482 C299.096,135.683 298.715,135.972 298.401,136.351 C298.088,136.729 297.849,137.188 297.682,137.729 C297.516,138.269 297.433,138.878 297.433,139.558 C297.433,140.244 297.516,140.856 297.682,141.396 C297.849,141.937 298.088,142.394 298.401,142.77 C298.715,143.145 299.096,143.433 299.546,143.633 C299.995,143.833 300.502,143.933 301.068,143.933 C301.634,143.933 302.14,143.833 302.586,143.633 C303.033,143.433 303.413,143.145 303.727,142.77 C304.039,142.394 304.279,141.937 304.446,141.396 C304.612,140.856 304.695,140.244 304.695,139.558 Z M307.25,139.558 C307.25,140.506 307.102,141.386 306.805,142.197 C306.508,143.008 306.089,143.709 305.548,144.299 C305.008,144.89 304.357,145.354 303.598,145.69 C302.837,146.027 301.994,146.196 301.068,146.196 C300.142,146.196 299.299,146.027 298.539,145.69 C297.778,145.354 297.127,144.89 296.584,144.299 C296.04,143.709 295.62,143.008 295.323,142.197 C295.026,141.386 294.878,140.506 294.878,139.558 C294.878,138.609 295.026,137.731 295.323,136.923 C295.62,136.115 296.04,135.416 296.584,134.825 C297.127,134.235 297.778,133.771 298.539,133.435 C299.299,133.098 300.142,132.929 301.068,132.929 C301.994,132.929 302.837,133.098 303.598,133.435 C304.357,133.771 305.008,134.236 305.548,134.83 C306.089,135.423 306.508,136.124 306.805,136.933 C307.102,137.74 307.25,138.615 307.25,139.558 L307.25,139.558 Z" id="Fill-13"></path>
                <path d="M311.576,139.218 L312.857,139.218 C313.262,139.218 313.611,139.163 313.905,139.053 C314.199,138.942 314.44,138.79 314.629,138.596 C314.817,138.402 314.956,138.174 315.045,137.912 C315.134,137.649 315.179,137.363 315.179,137.053 C315.179,136.438 314.988,135.962 314.608,135.621 C314.229,135.281 313.65,135.111 312.874,135.111 L311.576,135.111 L311.576,139.218 Z M311.576,141.105 L311.576,146.053 L309.08,146.053 L309.08,133.072 L312.874,133.072 C313.717,133.072 314.438,133.166 315.037,133.354 C315.636,133.542 316.127,133.803 316.51,134.137 C316.893,134.471 317.172,134.868 317.35,135.331 C317.527,135.793 317.616,136.302 317.616,136.856 C317.616,137.285 317.56,137.692 317.445,138.077 C317.332,138.462 317.167,138.812 316.95,139.128 C316.734,139.444 316.468,139.725 316.151,139.97 C315.836,140.214 315.473,140.411 315.062,140.56 C315.223,140.655 315.374,140.77 315.516,140.904 C315.656,141.038 315.783,141.198 315.894,141.383 L318.706,146.053 L316.451,146.053 C316.029,146.053 315.725,145.88 315.536,145.534 L313.24,141.553 C313.146,141.397 313.041,141.284 312.928,141.213 C312.814,141.142 312.646,141.105 312.425,141.105 L311.576,141.105 L311.576,141.105 Z" id="Fill-14"></path>
                <polyline id="Fill-15" points="328.149 133.072 328.149 135.237 324.622 135.237 324.622 146.053 322.117 146.053 322.117 135.237 318.59 135.237 318.59 133.072 328.149 133.072"></polyline>
                <path d="M337.354,145.86 C336.659,146.084 335.923,146.196 335.146,146.196 C334.153,146.196 333.255,146.03 332.45,145.699 C331.646,145.368 330.958,144.907 330.387,144.317 C329.815,143.727 329.375,143.026 329.064,142.215 C328.754,141.404 328.599,140.519 328.599,139.558 C328.599,138.586 328.746,137.694 329.043,136.883 C329.34,136.072 329.763,135.374 330.313,134.789 C330.861,134.205 331.525,133.749 332.305,133.421 C333.084,133.093 333.956,132.929 334.921,132.929 C335.421,132.929 335.887,132.972 336.319,133.059 C336.752,133.145 337.151,133.265 337.518,133.416 C337.883,133.568 338.219,133.749 338.523,133.958 C338.829,134.166 339.106,134.395 339.355,134.646 L338.632,135.845 C338.521,136.036 338.377,136.152 338.199,136.194 C338.021,136.236 337.828,136.188 337.617,136.051 C337.417,135.92 337.222,135.802 337.03,135.697 C336.839,135.594 336.635,135.502 336.419,135.425 C336.202,135.348 335.967,135.287 335.712,135.246 C335.457,135.204 335.163,135.184 334.83,135.184 C334.27,135.184 333.762,135.287 333.308,135.496 C332.853,135.705 332.466,136 332.146,136.382 C331.827,136.764 331.582,137.223 331.41,137.76 C331.238,138.297 331.152,138.895 331.152,139.558 C331.152,140.273 331.247,140.913 331.436,141.477 C331.624,142.04 331.89,142.516 332.234,142.903 C332.578,143.291 332.989,143.587 333.47,143.789 C333.949,143.992 334.483,144.094 335.071,144.094 C335.471,144.094 335.827,144.051 336.141,143.964 C336.453,143.877 336.76,143.76 337.06,143.61 L337.06,141.428 L335.695,141.428 C335.534,141.428 335.408,141.382 335.316,141.289 C335.225,141.196 335.18,141.079 335.18,140.936 L335.18,139.441 L339.322,139.441 L339.322,144.8 C338.707,145.283 338.051,145.637 337.354,145.86" id="Fill-16"></path>
                <path d="M343.974,141.123 L347.567,141.123 L346.262,137.151 C346.184,136.942 346.102,136.698 346.016,136.418 C345.93,136.138 345.846,135.836 345.762,135.515 C345.685,135.842 345.604,136.148 345.521,136.432 C345.438,136.715 345.357,136.961 345.279,137.169 L343.974,141.123 Z M351.761,146.053 L349.822,146.053 C349.606,146.053 349.43,145.998 349.294,145.888 C349.158,145.777 349.057,145.636 348.99,145.462 L348.175,142.984 L343.366,142.984 L342.551,145.462 C342.495,145.611 342.398,145.747 342.26,145.869 C342.121,145.991 341.946,146.053 341.735,146.053 L339.78,146.053 L344.498,133.072 L347.052,133.072 L351.761,146.053 L351.761,146.053 Z" id="Fill-17"></path>
                <path d="M360.551,145.86 C359.854,146.084 359.118,146.196 358.342,146.196 C357.349,146.196 356.45,146.03 355.646,145.699 C354.842,145.368 354.154,144.907 353.583,144.317 C353.012,143.727 352.57,143.026 352.26,142.215 C351.949,141.404 351.794,140.519 351.794,139.558 C351.794,138.586 351.942,137.694 352.239,136.883 C352.536,136.072 352.959,135.374 353.508,134.789 C354.057,134.205 354.721,133.749 355.501,133.421 C356.279,133.093 357.152,132.929 358.117,132.929 C358.616,132.929 359.082,132.972 359.515,133.059 C359.947,133.145 360.347,133.265 360.713,133.416 C361.079,133.568 361.415,133.749 361.72,133.958 C362.024,134.166 362.302,134.395 362.552,134.646 L361.828,135.845 C361.717,136.036 361.572,136.152 361.396,136.194 C361.218,136.236 361.023,136.188 360.813,136.051 C360.613,135.92 360.418,135.802 360.227,135.697 C360.035,135.594 359.831,135.502 359.614,135.425 C359.398,135.348 359.162,135.287 358.907,135.246 C358.652,135.204 358.358,135.184 358.025,135.184 C357.465,135.184 356.958,135.287 356.503,135.496 C356.048,135.705 355.661,136 355.343,136.382 C355.023,136.764 354.778,137.223 354.606,137.76 C354.435,138.297 354.349,138.895 354.349,139.558 C354.349,140.273 354.442,140.913 354.631,141.477 C354.819,142.04 355.086,142.516 355.43,142.903 C355.773,143.291 356.186,143.587 356.665,143.789 C357.145,143.992 357.679,144.094 358.267,144.094 C358.666,144.094 359.022,144.051 359.336,143.964 C359.649,143.877 359.956,143.76 360.255,143.61 L360.255,141.428 L358.891,141.428 C358.729,141.428 358.604,141.382 358.513,141.289 C358.421,141.196 358.375,141.079 358.375,140.936 L358.375,139.441 L362.519,139.441 L362.519,144.8 C361.902,145.283 361.247,145.637 360.551,145.86" id="Fill-18"></path>
                <polyline id="Fill-19" points="372.244 133.072 372.244 135.174 367.069 135.174 367.069 138.511 371.096 138.511 371.096 140.542 367.069 140.542 367.069 143.95 372.244 143.95 372.244 146.053 364.557 146.053 364.557 133.072 372.244 133.072"></polyline>
                <path d="M386.279,142.859 C386.418,142.859 386.534,142.913 386.629,143.02 L387.619,144.156 C387.131,144.824 386.524,145.331 385.801,145.677 C385.077,146.023 384.216,146.196 383.218,146.196 C382.313,146.196 381.501,146.03 380.78,145.699 C380.059,145.368 379.446,144.907 378.941,144.317 C378.437,143.727 378.048,143.026 377.776,142.215 C377.505,141.404 377.369,140.519 377.369,139.558 C377.369,138.914 377.434,138.301 377.564,137.72 C377.694,137.138 377.885,136.603 378.134,136.113 C378.384,135.625 378.685,135.184 379.037,134.789 C379.389,134.395 379.787,134.061 380.23,133.783 C380.675,133.506 381.158,133.294 381.683,133.147 C382.207,133.002 382.766,132.929 383.359,132.929 C383.803,132.929 384.223,132.971 384.619,133.054 C385.016,133.138 385.387,133.254 385.73,133.403 C386.074,133.552 386.392,133.732 386.683,133.944 C386.974,134.156 387.236,134.387 387.469,134.638 L386.629,135.872 C386.579,135.949 386.515,136.019 386.438,136.078 C386.359,136.138 386.255,136.167 386.121,136.167 C385.988,136.167 385.854,136.116 385.718,136.016 C385.582,135.914 385.415,135.801 385.219,135.675 C385.021,135.55 384.774,135.437 384.479,135.335 C384.182,135.234 383.806,135.184 383.351,135.184 C382.846,135.184 382.383,135.281 381.961,135.479 C381.54,135.675 381.178,135.96 380.876,136.333 C380.573,136.705 380.339,137.163 380.173,137.706 C380.006,138.249 379.923,138.866 379.923,139.558 C379.923,140.256 380.013,140.877 380.193,141.423 C380.374,141.969 380.62,142.43 380.934,142.806 C381.247,143.181 381.613,143.466 382.032,143.659 C382.451,143.854 382.898,143.95 383.376,143.95 C383.658,143.95 383.915,143.936 384.146,143.905 C384.375,143.876 384.589,143.825 384.786,143.754 C384.982,143.682 385.169,143.59 385.344,143.477 C385.519,143.363 385.694,143.22 385.872,143.047 C385.933,142.993 385.996,142.948 386.063,142.913 C386.13,142.877 386.201,142.859 386.279,142.859" id="Fill-20"></path>
                <path d="M397.869,139.558 C397.869,138.878 397.786,138.269 397.62,137.729 C397.453,137.188 397.213,136.729 396.9,136.351 C396.587,135.972 396.207,135.683 395.76,135.482 C395.313,135.283 394.808,135.184 394.242,135.184 C393.676,135.184 393.169,135.283 392.72,135.482 C392.27,135.683 391.889,135.972 391.575,136.351 C391.262,136.729 391.022,137.188 390.855,137.729 C390.689,138.269 390.606,138.878 390.606,139.558 C390.606,140.244 390.689,140.856 390.855,141.396 C391.022,141.937 391.262,142.394 391.575,142.77 C391.889,143.145 392.27,143.433 392.72,143.633 C393.169,143.833 393.676,143.933 394.242,143.933 C394.808,143.933 395.313,143.833 395.76,143.633 C396.207,143.433 396.587,143.145 396.9,142.77 C397.213,142.394 397.453,141.937 397.62,141.396 C397.786,140.856 397.869,140.244 397.869,139.558 Z M400.424,139.558 C400.424,140.506 400.275,141.386 399.979,142.197 C399.682,143.008 399.263,143.709 398.722,144.299 C398.182,144.89 397.531,145.354 396.771,145.69 C396.011,146.027 395.168,146.196 394.242,146.196 C393.315,146.196 392.473,146.027 391.713,145.69 C390.952,145.354 390.301,144.89 389.758,144.299 C389.214,143.709 388.794,143.008 388.497,142.197 C388.2,141.386 388.052,140.506 388.052,139.558 C388.052,138.609 388.2,137.731 388.497,136.923 C388.794,136.115 389.214,135.416 389.758,134.825 C390.301,134.235 390.952,133.771 391.713,133.435 C392.473,133.098 393.315,132.929 394.242,132.929 C395.168,132.929 396.011,133.098 396.771,133.435 C397.531,133.771 398.182,134.236 398.722,134.83 C399.263,135.423 399.682,136.124 399.979,136.933 C400.275,137.74 400.424,138.615 400.424,139.558 L400.424,139.558 Z" id="Fill-21"></path>
                <path d="M404.75,139.218 L406.031,139.218 C406.436,139.218 406.785,139.163 407.079,139.053 C407.373,138.942 407.614,138.79 407.803,138.596 C407.991,138.402 408.13,138.174 408.219,137.912 C408.308,137.649 408.353,137.363 408.353,137.053 C408.353,136.438 408.162,135.962 407.782,135.621 C407.402,135.281 406.824,135.111 406.048,135.111 L404.75,135.111 L404.75,139.218 Z M404.75,141.105 L404.75,146.053 L402.254,146.053 L402.254,133.072 L406.048,133.072 C406.891,133.072 407.611,133.166 408.211,133.354 C408.81,133.542 409.301,133.803 409.684,134.137 C410.066,134.471 410.346,134.868 410.523,135.331 C410.701,135.793 410.79,136.302 410.79,136.856 C410.79,137.285 410.733,137.692 410.619,138.077 C410.506,138.462 410.341,138.812 410.124,139.128 C409.908,139.444 409.642,139.725 409.325,139.97 C409.01,140.214 408.646,140.411 408.235,140.56 C408.396,140.655 408.548,140.77 408.689,140.904 C408.83,141.038 408.957,141.198 409.067,141.383 L411.88,146.053 L409.625,146.053 C409.203,146.053 408.898,145.88 408.71,145.534 L406.414,141.553 C406.319,141.397 406.215,141.284 406.102,141.213 C405.988,141.142 405.82,141.105 405.599,141.105 L404.75,141.105 L404.75,141.105 Z" id="Fill-22"></path>
                <path d="M415.558,139.531 L417.138,139.531 C417.92,139.531 418.493,139.328 418.856,138.923 C419.22,138.518 419.401,137.963 419.401,137.259 C419.401,136.937 419.355,136.643 419.264,136.378 C419.172,136.112 419.033,135.886 418.848,135.697 C418.662,135.51 418.428,135.365 418.145,135.264 C417.862,135.162 417.526,135.111 417.138,135.111 L415.558,135.111 L415.558,139.531 Z M415.558,141.589 L415.558,146.053 L413.062,146.053 L413.062,133.072 L417.138,133.072 C417.965,133.072 418.679,133.177 419.28,133.385 C419.882,133.594 420.377,133.885 420.766,134.257 C421.153,134.63 421.44,135.073 421.627,135.586 C421.813,136.099 421.905,136.656 421.905,137.259 C421.905,137.896 421.809,138.481 421.614,139.012 C421.42,139.543 421.126,139.999 420.732,140.381 C420.338,140.763 419.842,141.06 419.243,141.271 C418.644,141.482 417.942,141.589 417.138,141.589 L415.558,141.589 L415.558,141.589 Z" id="Fill-23"></path>
                <path d="M432.604,139.558 C432.604,138.878 432.521,138.269 432.355,137.729 C432.188,137.188 431.948,136.729 431.636,136.351 C431.322,135.972 430.942,135.683 430.495,135.482 C430.049,135.283 429.543,135.184 428.978,135.184 C428.411,135.184 427.904,135.283 427.455,135.482 C427.005,135.683 426.624,135.972 426.311,136.351 C425.997,136.729 425.758,137.188 425.591,137.729 C425.425,138.269 425.342,138.878 425.342,139.558 C425.342,140.244 425.425,140.856 425.591,141.396 C425.758,141.937 425.997,142.394 426.311,142.77 C426.624,143.145 427.005,143.433 427.455,143.633 C427.904,143.833 428.411,143.933 428.978,143.933 C429.543,143.933 430.049,143.833 430.495,143.633 C430.942,143.433 431.322,143.145 431.636,142.77 C431.948,142.394 432.188,141.937 432.355,141.396 C432.521,140.856 432.604,140.244 432.604,139.558 Z M435.159,139.558 C435.159,140.506 435.011,141.386 434.714,142.197 C434.417,143.008 433.998,143.709 433.457,144.299 C432.917,144.89 432.267,145.354 431.507,145.69 C430.746,146.027 429.903,146.196 428.978,146.196 C428.051,146.196 427.208,146.027 426.448,145.69 C425.688,145.354 425.036,144.89 424.493,144.299 C423.949,143.709 423.529,143.008 423.232,142.197 C422.936,141.386 422.787,140.506 422.787,139.558 C422.787,138.609 422.936,137.731 423.232,136.923 C423.529,136.115 423.949,135.416 424.493,134.825 C425.036,134.235 425.688,133.771 426.448,133.435 C427.208,133.098 428.051,132.929 428.978,132.929 C429.903,132.929 430.746,133.098 431.507,133.435 C432.267,133.771 432.917,134.236 433.457,134.83 C433.998,135.423 434.417,136.124 434.714,136.933 C435.011,137.74 435.159,138.615 435.159,139.558 L435.159,139.558 Z" id="Fill-24"></path>
                <path d="M439.485,139.218 L440.767,139.218 C441.171,139.218 441.521,139.163 441.814,139.053 C442.108,138.942 442.35,138.79 442.538,138.596 C442.727,138.402 442.865,138.174 442.954,137.912 C443.043,137.649 443.088,137.363 443.088,137.053 C443.088,136.438 442.897,135.962 442.518,135.621 C442.138,135.281 441.56,135.111 440.783,135.111 L439.485,135.111 L439.485,139.218 Z M439.485,141.105 L439.485,146.053 L436.989,146.053 L436.989,133.072 L440.783,133.072 C441.626,133.072 442.347,133.166 442.946,133.354 C443.545,133.542 444.036,133.803 444.419,134.137 C444.802,134.471 445.081,134.868 445.259,135.331 C445.437,135.793 445.525,136.302 445.525,136.856 C445.525,137.285 445.469,137.692 445.354,138.077 C445.241,138.462 445.076,138.812 444.859,139.128 C444.644,139.444 444.377,139.725 444.061,139.97 C443.745,140.214 443.382,140.411 442.971,140.56 C443.132,140.655 443.283,140.77 443.425,140.904 C443.565,141.038 443.692,141.198 443.803,141.383 L446.615,146.053 L444.36,146.053 C443.938,146.053 443.634,145.88 443.445,145.534 L441.149,141.553 C441.055,141.397 440.95,141.284 440.837,141.213 C440.724,141.142 440.556,141.105 440.334,141.105 L439.485,141.105 L439.485,141.105 Z" id="Fill-25"></path>
                <path d="M450.575,141.123 L454.169,141.123 L452.863,137.151 C452.785,136.942 452.703,136.698 452.617,136.418 C452.531,136.138 452.447,135.836 452.363,135.515 C452.286,135.842 452.206,136.148 452.122,136.432 C452.039,136.715 451.959,136.961 451.881,137.169 L450.575,141.123 Z M458.362,146.053 L456.424,146.053 C456.208,146.053 456.031,145.998 455.896,145.888 C455.76,145.777 455.658,145.636 455.592,145.462 L454.776,142.984 L449.968,142.984 L449.152,145.462 C449.097,145.611 449,145.747 448.861,145.869 C448.723,145.991 448.548,146.053 448.337,146.053 L446.382,146.053 L451.1,133.072 L453.653,133.072 L458.362,146.053 L458.362,146.053 Z" id="Fill-26"></path>
                <polyline id="Fill-27" points="466.841 133.072 466.841 135.237 463.313 135.237 463.313 146.053 460.809 146.053 460.809 135.237 457.281 135.237 457.281 133.072 466.841 133.072"></polyline>
                <polygon id="Fill-28" points="468.347 146.053 470.859 146.053 470.859 133.072 468.347 133.072"></polygon>
                <path d="M482.498,139.558 C482.498,138.878 482.415,138.269 482.249,137.729 C482.082,137.188 481.842,136.729 481.529,136.351 C481.216,135.972 480.836,135.683 480.389,135.482 C479.942,135.283 479.437,135.184 478.871,135.184 C478.305,135.184 477.798,135.283 477.349,135.482 C476.898,135.683 476.518,135.972 476.204,136.351 C475.891,136.729 475.651,137.188 475.484,137.729 C475.318,138.269 475.235,138.878 475.235,139.558 C475.235,140.244 475.318,140.856 475.484,141.396 C475.651,141.937 475.891,142.394 476.204,142.77 C476.518,143.145 476.898,143.433 477.349,143.633 C477.798,143.833 478.305,143.933 478.871,143.933 C479.437,143.933 479.942,143.833 480.389,143.633 C480.836,143.433 481.216,143.145 481.529,142.77 C481.842,142.394 482.082,141.937 482.249,141.396 C482.415,140.856 482.498,140.244 482.498,139.558 Z M485.053,139.558 C485.053,140.506 484.904,141.386 484.607,142.197 C484.311,143.008 483.892,143.709 483.351,144.299 C482.811,144.89 482.16,145.354 481.4,145.69 C480.64,146.027 479.797,146.196 478.871,146.196 C477.944,146.196 477.102,146.027 476.342,145.69 C475.581,145.354 474.93,144.89 474.387,144.299 C473.843,143.709 473.423,143.008 473.126,142.197 C472.829,141.386 472.681,140.506 472.681,139.558 C472.681,138.609 472.829,137.731 473.126,136.923 C473.423,136.115 473.843,135.416 474.387,134.825 C474.93,134.235 475.581,133.771 476.342,133.435 C477.102,133.098 477.944,132.929 478.871,132.929 C479.797,132.929 480.64,133.098 481.4,133.435 C482.16,133.771 482.811,134.236 483.351,134.83 C483.892,135.423 484.311,136.124 484.607,136.933 C484.904,137.74 485.053,138.615 485.053,139.558 L485.053,139.558 Z" id="Fill-29"></path>
                <path d="M488.468,133.085 C488.543,133.095 488.61,133.115 488.672,133.147 C488.732,133.181 488.791,133.224 488.847,133.277 C488.902,133.331 488.963,133.403 489.029,133.492 L495.087,141.768 C495.064,141.541 495.048,141.32 495.036,141.105 C495.025,140.891 495.02,140.688 495.02,140.497 L495.02,133.072 L497.225,133.072 L497.225,146.053 L495.936,146.053 C495.741,146.053 495.577,146.019 495.444,145.95 C495.312,145.882 495.181,145.764 495.053,145.597 L489.038,137.375 C489.055,137.584 489.067,137.788 489.075,137.987 C489.084,138.187 489.088,138.374 489.088,138.547 L489.088,146.053 L486.883,146.053 L486.883,133.072 L488.197,133.072 C488.303,133.072 488.394,133.076 488.468,133.085" id="Fill-30"></path>
                <path d="M198.482,41.069 L198.482,53.059 L172.837,53.059 L172.837,70.075 L194.194,70.075 L194.194,82.11 L172.837,82.11 L172.837,108.257 L158.255,108.257 L158.255,45.974 C158.255,43.265 160.45,41.069 163.159,41.069 L198.482,41.069" id="Fill-31"></path>
                <path d="M215.379,82.572 L232.448,82.572 L226.701,64.172 C226.272,63.004 225.815,61.628 225.329,60.044 C224.842,58.462 224.356,56.748 223.87,54.903 C223.413,56.778 222.949,58.517 222.478,60.114 C222.005,61.712 221.555,63.097 221.126,64.265 L215.379,82.572 Z M255.521,108.257 L244.284,108.257 C243.026,108.257 242.012,107.942 241.24,107.312 C240.468,106.683 239.882,105.875 239.482,104.891 L235.793,93.178 L212.034,93.178 L208.347,104.891 C208.031,105.752 207.467,106.527 206.652,107.22 C205.837,107.912 204.829,108.257 203.629,108.257 L192.307,108.257 L216.494,41.069 L231.333,41.069 L255.521,108.257 L255.521,108.257 Z" id="Fill-32"></path>
                <polygon id="Fill-33" points="258.736 108.257 273.319 108.257 273.319 41.069 258.736 41.069"></polygon>
                <path d="M298.191,72.657 L304.023,72.657 C305.996,72.657 307.676,72.388 309.063,71.851 C310.449,71.313 311.586,70.566 312.472,69.613 C313.358,68.66 314.001,67.547 314.402,66.27 C314.802,64.994 315.003,63.618 315.003,62.143 C315.003,59.191 314.108,56.885 312.322,55.226 C310.535,53.566 307.77,52.735 304.023,52.735 L298.191,52.735 L298.191,72.657 Z M298.191,83.401 L298.191,108.257 L283.695,108.257 L283.695,41.069 L304.023,41.069 C308.54,41.069 312.393,41.569 315.582,42.567 C318.769,43.567 321.371,44.959 323.387,46.74 C325.403,48.524 326.868,50.63 327.782,53.059 C328.698,55.487 329.155,58.131 329.155,60.99 C329.155,63.173 328.883,65.232 328.34,67.17 C327.797,69.106 326.989,70.897 325.918,72.541 C324.846,74.187 323.53,75.654 321.972,76.945 C320.413,78.236 318.618,79.297 316.589,80.127 C317.561,80.65 318.462,81.304 319.291,82.088 C320.12,82.871 320.862,83.802 321.521,84.877 L334.816,108.257 L321.692,108.257 C319.262,108.257 317.518,107.274 316.46,105.307 L306.083,85.8 C305.596,84.97 305.054,84.363 304.453,83.978 C303.853,83.594 302.994,83.401 301.879,83.401 L298.191,83.401 L298.191,83.401 Z" id="Fill-34"></path>
                <path d="M330.356,41.069 L342.535,41.069 C343.793,41.069 344.844,41.376 345.688,41.991 C346.53,42.607 347.081,43.421 347.339,44.436 L355.917,79.482 C356.173,80.62 356.431,81.834 356.688,83.125 C356.945,84.417 357.202,85.77 357.46,87.183 C357.975,84.293 358.603,81.727 359.346,79.482 L369.469,44.436 C369.725,43.574 370.275,42.797 371.119,42.106 C371.962,41.415 372.984,41.069 374.186,41.069 L378.475,41.069 C379.731,41.069 380.747,41.384 381.519,42.014 C382.291,42.644 382.877,43.451 383.277,44.436 L393.313,79.482 C394.056,81.635 394.686,84.078 395.199,86.814 C395.429,85.461 395.664,84.17 395.907,82.94 C396.149,81.711 396.4,80.559 396.658,79.482 L405.234,44.436 C405.464,43.544 406.007,42.76 406.865,42.084 C407.723,41.407 408.752,41.069 409.952,41.069 L421.36,41.069 L402.062,108.257 L388.938,108.257 L377.188,66.616 C376.759,65.294 376.344,63.773 375.943,62.051 C375.544,63.773 375.13,65.294 374.699,66.616 L362.777,108.257 L349.655,108.257 L330.356,41.069" id="Fill-35"></path>
                <path d="M433.968,82.572 L451.037,82.572 L445.29,64.172 C444.861,63.004 444.404,61.628 443.919,60.044 C443.432,58.462 442.945,56.748 442.46,54.903 C442.002,56.778 441.538,58.517 441.066,60.114 C440.594,61.712 440.144,63.097 439.715,64.265 L433.968,82.572 Z M474.109,108.257 L462.874,108.257 C461.615,108.257 460.601,107.942 459.829,107.312 C459.057,106.683 458.471,105.875 458.071,104.891 L454.382,93.178 L430.623,93.178 L426.936,104.891 C426.62,105.752 426.056,106.527 425.241,107.22 C424.426,107.912 423.419,108.257 422.218,108.257 L410.896,108.257 L435.083,41.069 L449.922,41.069 L474.109,108.257 L474.109,108.257 Z" id="Fill-36"></path>
                <path d="M497.225,82.71 L497.225,108.257 L482.73,108.257 L482.73,82.71 L460.086,41.069 L472.865,41.069 C474.124,41.069 475.117,41.384 475.847,42.014 C476.576,42.644 477.184,43.451 477.67,44.436 L486.504,63.986 C487.247,65.524 487.912,66.962 488.499,68.299 C489.083,69.637 489.606,70.95 490.063,72.242 C490.492,70.921 490.992,69.591 491.564,68.253 C492.136,66.916 492.794,65.494 493.537,63.986 L502.285,44.436 C502.486,44.036 502.729,43.636 503.015,43.236 C503.3,42.836 503.637,42.475 504.022,42.152 C504.409,41.83 504.853,41.569 505.353,41.369 C505.853,41.169 506.403,41.069 507.004,41.069 L519.869,41.069 L497.225,82.71" id="Fill-37"></path>
                <polygon id="Fill-38" points="158.501 123 497.501 123 497.501 118 158.501 118"></polygon>
                <path d="M21.651,51.716 L67.079,22.879 C69.26,21.496 72.043,21.496 74.223,22.879 L119.715,51.756 C121.651,52.986 122.824001,55.121 122.824001,57.416 L122.822,64.641 C47.877,55.799 18.475,103.37 18.475,103.37 L18.477,57.491 C18.477,55.149 19.675,52.971 21.651,51.716 Z M141.055,71.706 L141.049,47.451 C141.049,45.126 139.859,42.963 137.896,41.717 L74.34,1.373 C72.089,-0.057 69.214,-0.057 66.962,1.373 L3.371,41.739 C1.432,42.97 0.256,45.107 0.254,47.404 L0.190999003,139.475 C0.189,143.186 3.197,146.196 6.908,146.196 L17.678,146.196 C23.301,130.623 54.274,58.389 141.055,71.706 L141.055,71.706 Z" id="Fill-39"></path>
                <path d="M115.904,127.695004 L67.514,127.643 C67.514,127.643 69.529,120.463 73.896,112.613 C81.056,100.361 95.552,84.038 122.805,80.264 L122.799,120.807 C122.799,124.614 119.712,127.699 115.904,127.695004 Z M33.665,146.196 L134.338,146.196 C138.047,146.196 141.055,143.188 141.055,139.479 L141.055,74.333 C141.055,74.333 60.536,61.502 33.665,146.196 L33.665,146.196 Z" id="Fill-40"></path>
                <path d="M527.913,47.717 C528.534,47.717 528.911,47.322 528.911,46.682 C528.911,46.023 528.534,45.665 527.932,45.665 L527.028,45.665 L527.028,47.717 L527.913,47.717 Z M525.429,44.498 L528.289,44.498 C529.646,44.498 530.549,45.363 530.549,46.682 C530.549,47.754 529.814,48.338 529.325,48.47 L529.325,48.508 C529.325,48.508 529.4,48.583 529.57,48.903 L530.869,51.388 L529.099,51.388 L527.932,48.847 L527.028,48.847 L527.028,51.388 L525.429,51.388 L525.429,44.498 Z M527.781,53.365 C530.681,53.365 532.902,50.993 532.902,47.98 C532.902,44.987 530.681,42.615 527.781,42.615 C524.938,42.615 522.736,44.987 522.736,47.98 C522.736,50.993 524.938,53.365 527.781,53.365 Z M527.781,41.09 C531.547,41.09 534.559,44.159 534.559,47.98 C534.559,51.802 531.547,54.89 527.781,54.89 C524.072,54.89 521.06,51.802 521.06,47.98 C521.06,44.159 524.072,41.09 527.781,41.09 L527.781,41.09 Z" id="Fill-41"></path>
            </g>
        </g>
    </g>
</svg>