<?xml version="1.0" encoding="UTF-8"?>
<svg width="67px" height="70px" viewBox="0 0 67 70" version="1.1" xmlns="http://www.w3.org/2000/svg" xmlns:xlink="http://www.w3.org/1999/xlink">
    <title>nav / icon</title>
    <defs>
        <polygon id="path-1" points="0.000185577942 0.048825504 65.7207613 0.048825504 65.7207613 68.11776 0.000185577942 68.11776"></polygon>
        <polygon id="path-3" points="0.220822848 0.206954605 50.3242347 0.206954605 50.3242347 34.05888 0.220822848 34.05888"></polygon>
    </defs>
    <g id="Desktop" stroke="none" stroke-width="1" fill="none" fill-rule="evenodd">
        <g id="Artboard" transform="translate(-200.000000, -33.000000)">
            <g id="nav-/-icon" transform="translate(200.000000, 33.000000)">
                <g id="Group-3" transform="translate(0.000000, 0.418038)">
                    <mask id="mask-2" fill="white">
                        <use xlink:href="#path-1"></use>
                    </mask>
                    <g id="Clip-2"></g>
                    <path d="M10.0120977,24.0373578 L31.2074519,10.5831671 C32.2240861,9.93744806 33.5229892,9.93744806 34.5396234,10.5831671 L55.7643709,24.0560202 C56.6680977,24.629889 57.2153728,25.6259946 57.2153728,26.6962833 L57.2144394,30.0671793 C22.2481002,25.9423223 8.5303031,48.1370481 8.5303031,48.1370481 L8.53123622,26.7312753 C8.53123622,25.6390583 9.08970854,24.6224241 10.0120977,24.0373578 M65.7207613,33.3638922 L65.717962,22.0470129 C65.717962,20.9627274 65.1632221,19.9535581 64.2473649,19.3717578 L34.5946775,0.548861184 C33.5444509,-0.117853056 32.2030909,-0.117853056 31.1523978,0.548861184 L1.48338086,19.3820221 C0.578254464,19.9563575 0.029579904,20.9538628 0.029579904,22.0255511 L0.000185577942,64.9817303 C-0.001213056,66.7131345 1.40219942,68.1179466 3.13407014,68.1179466 L8.15845478,68.1179466 C10.7819217,60.8522077 25.2331511,27.1502461 65.7207613,33.3638922" id="Fill-1" fill="#000000" mask="url(#mask-2)"></path>
                </g>
                <g id="Group-6" transform="translate(15.396480, 34.476918)">
                    <mask id="mask-4" fill="white">
                        <use xlink:href="#path-3"></use>
                    </mask>
                    <g id="Clip-5"></g>
                    <path d="M38.5902507,25.4272419 L16.0134123,25.4025124 C16.0134123,25.4025124 16.9535307,22.0530781 18.9909982,18.3905821 C22.3311012,12.674289 29.0948216,5.05863014 41.8099812,3.29736614 L41.8076484,22.2131082 C41.8071819,23.9897687 40.3669112,25.4291063 38.5902507,25.4272419 M0.220822848,34.0590666 L47.1908177,34.0590666 C48.9217553,34.0590666 50.3242347,32.6556541 50.3242347,30.9251831 L50.3242347,0.530665344 C50.3242347,0.530665344 12.7577566,-5.45576602 0.220822848,34.0590666" id="Fill-4" fill="#000000" mask="url(#mask-4)"></path>
                </g>
            </g>
        </g>
    </g>
</svg>