<?xml version="1.0" encoding="UTF-8"?>
<svg width="67px" height="69px" viewBox="0 0 67 69" version="1.1" xmlns="http://www.w3.org/2000/svg" xmlns:xlink="http://www.w3.org/1999/xlink">
    <title>EHL Logo_Black</title>
    <defs>
        <polygon id="path-1" points="0.72 0.634 60.558 0.634 60.558 36.82 0.72 36.82"></polygon>
    </defs>
    <g id="Desktop" stroke="none" stroke-width="1" fill="none" fill-rule="evenodd">
        <g id="Artboard" transform="translate(-542.000000, -7146.000000)">
            <g id="EHL-Logo_Black" transform="translate(542.000000, 7146.000000)">
                <path d="M55.044,44.595 L12.042,44.595 L12.042,20.613 L33.777,7.86 L55.044,20.613 L55.044,44.595 Z M33.78,0.621 L0,19.845 L0,26.793 L5.175,26.793 L5.175,50.682 L61.539,50.682 L61.539,26.793 L66.807,26.793 L66.807,20.037 L33.78,0.621 L33.78,0.621 Z" id="Fill-1" fill="#010000"></path>
                <polygon id="Fill-2" fill="#010000" points="22.218 29.745 44.706 29.745 44.706 23.844 22.218 23.844"></polygon>
                <g id="Group-11" transform="translate(3.000000, 32.000000)">
                    <mask id="mask-2" fill="white">
                        <use xlink:href="#path-1"></use>
                    </mask>
                    <g id="Clip-4"></g>
                    <polygon id="Fill-3" fill="#010000" mask="url(#mask-2)" points="19.218 6.535 41.706 6.535 41.706 0.634 19.218 0.634"></polygon>
                    <path d="M35.226,35.38 L33.534,35.38 L33.534,31.096 L35.415,31.096 C36.732,31.096 37.956,31.858 37.956,33.379 C37.956,35.092 36.828,35.38 35.226,35.38 Z M35.418,29.482 L31.464,29.482 L31.464,37 L35.322,37 C38.427,37 40.215,36.334 40.215,33.385 C40.215,30.337 38.241,29.482 35.418,29.482 L35.418,29.482 Z" id="Fill-5" fill="#010000" mask="url(#mask-2)"></path>
                    <path d="M57.162,32.251 L54.15,32.251 L54.15,31.108 L57.255,31.108 C58.101,31.108 58.479,31.204 58.479,31.678 C58.479,32.251 58.197,32.251 57.162,32.251 Z M58.392,33.859 C59.805,33.67 60.462,33.097 60.462,31.861 C60.462,30.148 59.616,29.482 57.546,29.482 L52.089,29.482 L52.089,37 L54.159,37 L54.159,33.859 L56.136,33.859 L58.299,37 L60.558,37 L58.392,33.859 L58.392,33.859 Z" id="Fill-6" fill="#010000" mask="url(#mask-2)"></path>
                    <polyline id="Fill-7" fill="#010000" mask="url(#mask-2)" points="20.121 29.482 20.121 37 22.095 37 22.095 32.431 26.049 37 28.401 37 28.401 29.482 26.424 29.482 26.424 34.144 22.473 29.482 20.121 29.482"></polyline>
                    <polyline id="Fill-8" fill="#010000" mask="url(#mask-2)" points="0.72 29.482 0.72 37 8.154 37 8.154 35.383 2.79 35.287 2.79 29.482 0.72 29.482"></polyline>
                    <polyline id="Fill-9" fill="#010000" mask="url(#mask-2)" points="10.281 37 17.526 37 17.526 35.383 12.447 35.383 12.447 33.763 16.68 33.763 16.68 32.242 12.447 32.242 12.447 31.099 17.526 31.099 17.526 29.482 10.281 29.482 10.281 37"></polyline>
                    <polyline id="Fill-10" fill="#010000" mask="url(#mask-2)" points="42.531 29.482 42.531 37 49.683 36.904 49.683 35.383 44.601 35.383 44.601 33.763 48.93 33.763 48.93 32.242 44.601 32.242 44.601 31.099 49.683 31.099 49.683 29.482 42.531 29.482"></polyline>
                </g>
                <path d="M20.544,56.985 L21.111,54.321 L21.768,56.985 L20.544,56.985 Z M21.948,52.875 L20.349,52.875 L18.468,59.631 L19.839,59.631 L20.256,58.107 L21.948,58.107 L22.365,59.631 L23.832,59.631 L21.948,52.875 L21.948,52.875 Z" id="Fill-12" fill="#010000"></path>
                <path d="M11.076,57.156 C11.076,58.395 10.98,58.68 10.227,58.68 C9.57,58.68 9.381,58.299 9.381,57.06 L9.381,55.443 C9.381,54.207 9.477,53.826 10.323,53.826 C10.98,53.826 11.076,54.015 11.076,55.347 L11.076,57.156 Z M12.117,58.68 C12.399,58.11 12.492,57.729 12.492,56.874 L12.492,55.446 C12.492,53.826 12.117,52.686 10.233,52.686 C8.541,52.686 7.977,53.637 7.977,55.35 L7.977,57.159 C7.977,59.442 9.294,59.538 13.152,59.538 L13.245,59.061 L12.117,58.68 L12.117,58.68 Z" id="Fill-13" fill="#010000"></path>
                <path d="M46.368,57.822 C46.368,58.869 47.028,59.727 48.534,59.727 C49.755,59.727 50.886,58.869 50.886,57.822 C50.886,56.205 47.874,55.443 47.874,54.396 C47.874,54.015 48.249,53.826 48.627,53.826 C49.191,53.826 49.473,54.207 49.755,54.777 L50.697,54.396 C50.604,53.445 49.944,52.683 48.534,52.683 C47.403,52.683 46.464,53.253 46.464,54.396 C46.464,56.298 49.473,56.775 49.473,58.014 C49.473,58.488 49.191,58.68 48.627,58.68 C48.063,58.68 47.685,58.299 47.499,57.63 L46.368,57.822" id="Fill-14" fill="#010000"></path>
                <path d="M39.27,57.156 C39.27,58.299 38.985,58.68 38.421,58.68 C37.668,58.68 37.575,58.203 37.575,57.252 L37.575,55.158 C37.575,54.303 37.668,53.73 38.421,53.73 C39.174,53.73 39.27,54.396 39.27,55.158 L39.27,57.156 Z M38.424,52.683 C37.014,52.683 36.168,53.445 36.168,55.254 L36.168,57.441 C36.168,59.061 36.639,59.727 38.424,59.727 C40.212,59.727 40.683,58.965 40.683,57.156 L40.683,55.062 C40.683,53.349 40.212,52.683 38.424,52.683 L38.424,52.683 Z" id="Fill-15" fill="#010000"></path>
                <path d="M58.947,57.156 C58.947,59.154 59.514,59.727 61.395,59.727 C62.85,59.727 63.276,59.034 63.276,58.299 L63.276,56.109 L61.302,56.109 L61.302,57.156 L61.959,57.156 L61.959,57.918 C61.959,58.488 61.77,58.773 61.302,58.773 C60.36,58.773 60.264,58.107 60.264,57.156 L60.264,55.632 C60.264,54.492 60.36,53.73 61.302,53.73 C61.959,53.73 62.334,54.207 62.43,54.873 L63.372,54.492 C63.276,53.349 62.523,52.683 61.206,52.683 C59.325,52.683 58.947,53.73 58.947,55.158 L58.947,57.156" id="Fill-16" fill="#010000"></path>
                <path d="M41.271,52.872 L41.271,56.775 C41.271,59.058 41.658,59.79 43.635,59.79 C45.141,59.79 45.693,58.962 45.693,56.964 L45.693,52.872 L44.376,52.872 L44.376,56.775 C44.376,58.296 44.283,58.677 43.53,58.677 C42.777,58.677 42.684,58.107 42.684,56.679 L42.684,52.872 L41.271,52.872" id="Fill-17" fill="#010000"></path>
                <polyline id="Fill-18" fill="#010000" points="53.844 52.875 53.844 59.631 54.972 59.631 54.972 55.062 56.571 59.631 58.266 59.631 58.266 52.875 57.135 52.875 57.135 57.06 55.632 52.875 53.844 52.875"></polyline>
                <path d="M13.845,52.872 L13.845,56.964 C13.845,58.869 14.034,59.724 15.915,59.724 C18.081,59.724 18.174,58.677 18.174,56.775 L18.174,52.872 L16.857,52.872 L16.857,56.868 C16.857,58.203 16.668,58.584 16.011,58.584 C15.258,58.584 15.162,58.203 15.162,56.679 L15.162,52.872 L13.845,52.872" id="Fill-19" fill="#010000"></path>
                <polyline id="Fill-20" fill="#010000" points="30.96 52.875 30.96 59.631 32.277 59.631 32.277 56.586 33.876 56.586 33.876 59.631 35.193 59.631 35.193 52.875 33.876 52.875 33.876 55.443 32.277 55.443 32.277 52.875 30.96 52.875"></polyline>
                <polyline id="Fill-21" fill="#010000" points="3.624 52.875 3.624 59.631 7.011 59.631 7.011 58.584 4.941 58.584 4.941 56.679 6.825 56.679 6.825 55.728 4.941 55.728 4.941 53.919 7.011 53.919 7.011 52.875 3.624 52.875"></polyline>
                <polyline id="Fill-22" fill="#010000" points="24.429 52.875 24.429 59.631 27.534 59.631 27.534 58.584 25.557 58.584 25.557 52.875 24.429 52.875"></polyline>
                <polygon id="Fill-23" fill="#010000" points="51.576 59.631 52.8 59.631 52.8 52.875 51.576 52.875"></polygon>
            </g>
        </g>
    </g>
</svg>